<!--?xml version="1.0" encoding="utf-8"?-->
<!-- Generator: Adobe Illustrator 18.1.1, SVG Export Plug-In . SVG Version: 6.00 Build 0)  -->

<svg version="1.1" id="_x32_" xmlns="http://www.w3.org/2000/svg" xmlns:xlink="http://www.w3.org/1999/xlink" x="0px" y="0px" viewBox="0 0 512 512" style="width: 64px; height: 64px; opacity: 1;" xml:space="preserve">
<style type="text/css">
	.st0{fill:#4B4B4B;}
</style>
<g>
	<path class="st0" d="M256.011,0C114.623,0,0,114.612,0,256c0,141.388,114.623,256,256.011,256S512,397.389,512,256
		C512,114.612,397.399,0,256.011,0z M447.918,168.402c6.816,5.447,11.163,15.851,10.598,27.57
		c-0.544,11.684-5.82,21.556-13.112,26.187c-6.792-5.446-11.14-15.873-10.574-27.569
		C435.373,182.884,440.649,173.033,447.918,168.402z M432.203,250.192c-9.035-1.834-18.342-9.442-23.799-20.538
		c-5.479-11.084-5.66-22.712-1.336-30.422c9.012,1.846,18.319,9.443,23.798,20.55C436.347,230.854,436.528,242.482,432.203,250.192z
		 M387.957,172.128c-8.175-8.163-11.978-18.206-10.711-26.074c8.333-0.826,18.704,3.284,26.878,11.458
		c8.175,8.175,11.979,18.228,10.71,26.074C406.502,184.412,396.154,180.314,387.957,172.128z M393.731,359.641
		c-2.219,12.76-9.396,22.859-18.024,26.924c-6.702-6.928-10.009-18.953-7.79-31.712c2.242-12.75,9.398-22.826,18.048-26.912
		C392.644,334.857,395.973,346.892,393.731,359.641z M425.364,298.424c-0.067,12.238-5.162,22.746-12.544,27.863
		c-7.337-5.424-12.296-16.134-12.228-28.373c0.068-12.228,5.141-22.734,12.522-27.863
		C420.451,275.474,425.432,286.185,425.364,298.424z M403.785,112.031c7.427,2.456,14.537,9.804,18.07,19.711
		c3.554,9.895,2.581,19.7-1.789,25.769c-7.405-2.48-14.515-9.805-18.047-19.711C398.464,127.893,399.437,118.088,403.785,112.031z
		 M376.816,104.819c7.631,7.563,11.232,16.914,10.077,24.228c-7.744,0.804-17.414-2.967-25.044-10.552
		c-7.653-7.574-11.254-16.904-10.076-24.24C359.494,93.463,369.163,97.244,376.816,104.819z M135.206,104.819
		c7.653-7.575,17.3-11.356,25.044-10.564c1.154,7.336-2.422,16.666-10.076,24.24c-7.654,7.586-17.3,11.356-25.044,10.552
		C123.974,121.733,127.552,112.382,135.206,104.819z M126.058,327.94c8.628,4.087,15.806,14.163,18.025,26.912
		c2.219,12.759-1.065,24.784-7.767,31.712c-8.628-4.065-15.806-14.164-18.025-26.924
		C116.049,346.892,119.356,334.857,126.058,327.94z M97.187,183.586c-1.268-7.847,2.536-17.9,10.71-26.074
		c8.175-8.174,18.545-12.284,26.856-11.458c1.29,7.869-2.536,17.911-10.71,26.074C115.868,180.314,105.498,184.412,97.187,183.586z
		 M90.145,131.742c3.555-9.907,10.642-17.255,18.07-19.711c4.37,6.058,5.32,15.862,1.789,25.769
		c-3.556,9.906-10.643,17.232-18.07,19.711C87.564,151.442,86.613,141.637,90.145,131.742z M104.954,199.232
		c4.326,7.71,4.144,19.338-1.336,30.422c-5.48,11.096-14.787,18.704-23.799,20.538c-4.325-7.71-4.144-19.338,1.336-30.41
		C86.613,208.675,95.919,201.078,104.954,199.232z M111.43,297.914c0.068,12.239-4.913,22.95-12.25,28.373
		c-7.383-5.118-12.455-15.625-12.522-27.863c-0.068-12.239,4.913-22.95,12.228-28.373
		C106.268,275.18,111.362,285.686,111.43,297.914z M64.082,168.402c7.291,4.63,12.568,14.482,13.111,26.188
		c0.544,11.696-3.782,22.123-10.574,27.569c-7.291-4.63-12.591-14.502-13.111-26.187C52.941,184.253,57.289,173.849,64.082,168.402z
		 M42.797,274.127c-6.68-10.27-8.198-21.828-4.823-30.117c9.125,0.566,19.18,6.816,25.882,17.108
		c6.68,10.268,8.197,21.806,4.823,30.105C59.553,290.668,49.477,284.407,42.797,274.127z M74.725,370.692
		c-11.798-7.45-18.863-18.364-19.315-28.102c9.714-3.328,23.097-1.347,34.894,6.103c11.798,7.439,18.863,18.341,19.316,28.079
		C99.905,380.112,86.522,378.13,74.725,370.692z M137.787,426.214c-13.676-4.336-23.708-13.167-26.946-22.44
		c8.536-5.548,22.191-6.861,35.868-2.514c13.654,4.314,23.685,13.167,26.946,22.429
		C165.119,429.238,151.442,430.551,137.787,426.214z M273.922,347.742c0,1.675-1.11,2.785-2.784,2.785h-25.566
		c-1.675,0-2.785-1.11-2.785-2.785V198.723h-0.544l-28.916,20.289c-1.676,1.12-3.057,0.566-3.057-1.653v-28.362
		c0-1.665,0.544-2.774,1.924-3.894l30.32-21.966c1.382-1.109,2.786-1.664,5.005-1.664h23.618c1.675,0,2.784,1.11,2.784,2.785
		V347.742z M374.235,426.214c-13.655,4.337-27.332,3.024-35.868-2.524c3.238-9.262,13.27-18.115,26.946-22.429
		c13.655-4.348,27.332-3.034,35.868,2.514C397.943,413.047,387.912,421.878,374.235,426.214z M437.298,370.692
		c-11.798,7.438-25.18,9.42-34.894,6.08c0.452-9.738,7.518-20.64,19.315-28.079c11.798-7.45,25.179-9.431,34.894-6.103
		C456.16,352.328,449.095,363.242,437.298,370.692z M443.344,291.223c-3.374-8.299-1.856-19.837,4.823-30.105
		c6.68-10.292,16.756-16.542,25.882-17.108c3.375,8.288,1.857,19.847-4.823,30.117C462.546,284.407,452.469,290.668,443.344,291.223
		z"></path>
</g>
</svg>
